HIERARCHY
ROOT Hips
{
  OFFSET 1.44925e-005 102.336 -0.101585
  CHANNELS 6 Xposition Yposition Zposition Zrotation Xrotation Yrotation
  JOINT LeftUpLeg
  {
    OFFSET 8.9458 -8.66707 0.101652
    CHANNELS 3 Zrotation Xrotation Yrotation
    JOINT LeftLeg
    {
      OFFSET 0 -44.4227 1.3727
      CHANNELS 3 Zrotation Xrotation Yrotation
      JOINT LeftFoot
      {
        OFFSET -0.253549 -42.0924 -1.46059
        CHANNELS 3 Zrotation Xrotation Yrotation
        JOINT LeftToes
        {
          OFFSET -0.04 -4.41509 8.4991
          CHANNELS 3 Zrotation Xrotation Yrotation
          End Site
          {
            OFFSET 0.08 -0.047448 9.77979
          }
        }
      }
    }
  }
  JOINT Spine
  {
    OFFSET 0 11.8905 0
    CHANNELS 3 Zrotation Xrotation Yrotation
    JOINT Spine1
    {
      OFFSET 0 25.6574 0.127663
      CHANNELS 3 Zrotation Xrotation Yrotation
      JOINT RightShoulder
      {
        OFFSET -8.99 -0.362252 -0.22
        CHANNELS 3 Zrotation Xrotation Yrotation
        JOINT RightArm
        {
          OFFSET -10.2827 -0.00338 0.322123
          CHANNELS 3 Zrotation Xrotation Yrotation
          JOINT RightForeArm
          {
            OFFSET -26.364 0.099144 -1.42434
            CHANNELS 3 Zrotation Xrotation Yrotation
            JOINT RightHand
            {
              OFFSET -22.0324 0.085362 1.02216
              CHANNELS 3 Zrotation Xrotation Yrotation
              End Site
              {
                OFFSET -13.3284 -0.6 1.50291
              }
            }
          }
        }
      }
      JOINT LeftShoulder1
      {
        OFFSET 8.99 -0.362252 -0.22
        CHANNELS 3 Zrotation Xrotation Yrotation
        JOINT LeftArm
        {
          OFFSET 10.2827 -0.00337999 0.322123
          CHANNELS 3 Zrotation Xrotation Yrotation
          JOINT LeftForeArm
          {
            OFFSET 26.2597 0.099144 -1.42434
            CHANNELS 3 Zrotation Xrotation Yrotation
            JOINT LeftHand
            {
              OFFSET 22.0902 0.085362 1.02216
              CHANNELS 3 Zrotation Xrotation Yrotation
              End Site
              {
                OFFSET 13.419 -0.6 1.50291
              }
            }
          }
        }
      }
      JOINT Head
      {
        OFFSET 0 8.73416 0.011341
        CHANNELS 3 Zrotation Xrotation Yrotation
        End Site
        {
          OFFSET -0.29 12.7742 2.51395
        }
      }
    }
  }
  JOINT RightUpLeg
  {
    OFFSET -8.9458 -8.66707 0.101652
    CHANNELS 3 Zrotation Xrotation Yrotation
    JOINT RightLeg
    {
      OFFSET 0 -44.4227 1.3727
      CHANNELS 3 Zrotation Xrotation Yrotation
      JOINT RightFoot
      {
        OFFSET 0.253549 -42.0924 -1.46059
        CHANNELS 3 Zrotation Xrotation Yrotation
        JOINT RightToes
        {
          OFFSET 0.04 -4.41509 8.4991
          CHANNELS 3 Zrotation Xrotation Yrotation
          End Site
          {
            OFFSET -0.08 -0.137448 9.77979
          }
        }
      }
    }
  }
}
MOTION
Frames:	10
Frame Time:	0.0333333
31.0171 102.107 4.02444 -5.92003 -0.525335 -88.9312 0.594741 3.09073 3.41507 0.349751 11.6766 18.4568 -4.07993 -12.6559 -0.12334 -1.32944e-009 8.7522e-006 -1.45884e-008 0.50885 8.26109 -0.434066 -1.19874 -2.22336 -0.13205 36.6532 1.80488 0.204701 43.4707 -19.7585 8.18124 10.3413 39.342 4.62571 -5.3116 9.77151 -2.58141 -42.4664 3.38056 -3.40189 -29.4181 -12.3321 3.23463 -3.83428 35.9031 -15.3226 5.82328 9.61819 -0.917488 1.50885 -2.80176 -7.10265 -1.38893 1.68573 -4.27271 -0.559343 12.3515 -10.9015 4.38449 -12.5474 -0.0144736 0.0462048 0.000530889 0.662642 
30.9977 102.119 4.01541 -5.92259 -0.554795 -88.9352 0.586732 3.08559 3.42559 0.330566 11.7189 18.4102 -4.10233 -12.6126 -0.123319 -1.32944e-009 8.7522e-006 -1.45884e-008 0.431259 8.22738 -0.435018 -1.10894 -2.15806 -0.150294 36.4884 1.80488 0.218113 43.6211 -19.8384 8.20991 10.283 39.5706 4.64212 -5.24889 9.77149 -2.58403 -42.6452 3.40193 -3.41813 -29.2983 -12.2476 3.28571 -3.7604 35.8383 -15.4233 5.82328 9.61819 -0.917488 1.42271 -2.79607 -7.05936 -1.41349 1.7471 -4.27724 -0.565034 12.2602 -10.865 4.35803 -12.5307 -0.0144727 0.0462048 0.000530889 0.662642 
30.9668 102.125 3.99974 -5.90732 -0.576456 -88.9092 0.577458 3.0541 3.41543 0.342497 11.7819 18.3565 -4.11984 -12.5877 -0.123307 -1.32944e-009 8.7522e-006 -1.45884e-008 0.352564 8.16506 -0.442518 -0.994436 -2.07299 -0.185173 36.2672 1.80488 0.237574 43.8261 -19.9496 8.25523 10.2276 39.9609 4.61891 -5.09097 9.77224 -2.48286 -42.8796 3.42945 -3.43821 -29.1408 -12.0431 3.3643 -3.65697 35.6243 -15.5943 5.82328 9.61819 -0.917488 1.31215 -2.77549 -6.98197 -1.43902 1.78744 -4.30302 -0.537653 12.1966 -10.846 4.29666 -12.5375 -0.0144731 0.0462048 0.000530889 0.662642 
30.9391 102.115 3.98449 -5.87455 -0.565495 -88.8682 0.585261 3.018 3.39533 0.377311 11.8086 18.3377 -4.13772 -12.6278 -0.123327 -1.32944e-009 8.7522e-006 -1.45884e-008 0.34579 8.09889 -0.460237 -0.952891 -2.01431 -0.210393 36.1786 1.80488 0.245358 43.9163 -20.0067 8.2956 10.2209 40.245 4.56417 -5.00437 9.77342 -2.31426 -42.9764 3.4401 -3.44503 -29.0745 -11.8574 3.40791 -3.6098 35.3705 -15.7101 5.82328 9.61819 -0.917488 1.29946 -2.74166 -6.88424 -1.43296 1.75177 -4.32018 -0.500489 12.2458 -10.879 4.2578 -12.5864 -0.0144758 0.0462048 0.000530889 0.662642 
30.914 102.104 3.97021 -5.84569 -0.547062 -88.8424 0.610674 3.00575 3.3984 0.38677 11.7969 18.3281 -4.16589 -12.6794 -0.123401 -1.32944e-009 8.7522e-006 -1.45884e-008 0.353543 8.03689 -0.473117 -0.947677 -1.96125 -0.221137 36.2007 1.80488 0.240613 43.9117 -20.0184 8.33394 10.2229 40.3352 4.5435 -5.12199 9.77434 -2.2329 -42.955 3.43842 -3.44409 -29.0917 -11.8102 3.40628 -3.61917 35.2281 -15.732 5.82328 9.61819 -0.917488 1.36211 -2.70073 -6.795 -1.40269 1.69982 -4.30431 -0.496855 12.3262 -10.9352 4.27482 -12.6379 -0.0144787 0.0462048 0.000530889 0.662642 
30.886 102.103 3.95533 -5.83197 -0.547376 -88.831 0.635118 3.0099 3.42222 0.365569 11.7929 18.2907 -4.18584 -12.6834 -0.123636 -1.32944e-009 8.7522e-006 -1.45884e-008 0.303338 7.9761 -0.474588 -0.89916 -1.89364 -0.230924 36.205 1.80488 0.235331 43.9212 -20.0349 8.37611 10.2053 40.3262 4.56351 -5.35479 9.77556 -2.29194 -42.9339 3.44043 -3.44826 -29.1168 -11.9238 3.38806 -3.64104 35.259 -15.693 5.82328 9.61819 -0.917488 1.37513 -2.65807 -6.76098 -1.38013 1.69642 -4.27875 -0.516851 12.3405 -10.9712 4.30742 -12.6554 -0.0144654 0.0462048 0.000530889 0.662642 
30.8569 102.104 3.94185 -5.82749 -0.558631 -88.8266 0.645442 3.01833 3.44023 0.347069 11.805 18.2515 -4.17182 -12.6635 -0.123907 -1.32944e-009 8.7522e-006 -1.45884e-008 0.231826 7.92682 -0.467698 -0.832552 -1.83954 -0.238983 36.1661 1.80488 0.232113 43.9636 -20.0675 8.40996 10.1925 40.3106 4.57266 -5.48227 9.77644 -2.40293 -42.9436 3.44217 -3.45269 -29.1233 -12.1222 3.37757 -3.6498 35.4039 -15.6378 5.82328 9.61819 -0.917488 1.30458 -2.60932 -6.78373 -1.37739 1.72499 -4.27386 -0.524102 12.3114 -10.9722 4.30644 -12.656 -0.0143718 0.0462048 0.000530889 0.662642 
30.8315 102.105 3.93225 -5.82894 -0.560716 -88.8347 0.647835 3.04409 3.44742 0.345175 11.793 18.2549 -4.13174 -12.6712 -0.124233 -1.32944e-009 8.7522e-006 -1.45884e-008 0.231486 7.91797 -0.464923 -0.851575 -1.84207 -0.23244 36.1704 1.80488 0.229803 43.9718 -20.0851 8.41578 10.1957 40.2893 4.56607 -5.41453 9.7773 -2.48501 -42.9221 3.4398 -3.45263 -29.141 -12.2786 3.37925 -3.64638 35.5434 -15.5997 5.82328 9.61819 -0.917488 1.25045 -2.54993 -6.8139 -1.37628 1.74293 -4.27961 -0.518745 12.3098 -10.9582 4.28748 -12.6735 -0.0142234 0.0462048 0.000530889 0.662642 
30.809 102.106 3.92374 -5.83947 -0.555507 -88.842 0.652753 3.08543 3.45406 0.349376 11.7624 18.2719 -4.10999 -12.6957 -0.124599 -1.32944e-009 8.7522e-006 -1.45884e-008 0.300411 7.95692 -0.475118 -0.967599 -1.89622 -0.220012 36.2449 1.80488 0.228505 43.9324 -20.0695 8.39722 10.1918 40.257 4.58286 -5.28669 9.77823 -2.51681 -42.8487 3.4305 -3.44501 -29.1822 -12.3252 3.38514 -3.6438 35.6052 -15.5858 5.82328 9.61819 -0.917488 1.27339 -2.4987 -6.82515 -1.36324 1.75736 -4.27297 -0.524089 12.3317 -10.961 4.29428 -12.7009 -0.0140233 0.0462048 0.000530889 0.662642 
30.7851 102.107 3.91173 -5.85448 -0.554562 -88.819 0.661394 3.10615 3.45407 0.361196 11.7763 18.2391 -4.13376 -12.7037 -0.124982 -1.32944e-009 8.7522e-006 -1.45884e-008 0.347239 8.00632 -0.499894 -1.06596 -1.95464 -0.22597 36.3135 1.80488 0.228359 43.9048 -20.0416 8.38227 10.1879 40.2508 4.60154 -5.26825 9.77758 -2.47948 -42.772 3.42038 -3.43625 -29.2276 -12.3103 3.38851 -3.65569 35.6054 -15.5754 5.82328 9.61819 -0.917488 1.31555 -2.47945 -6.83563 -1.34418 1.78812 -4.25872 -0.538011 12.3395 -10.996 4.32351 -12.7134 -0.0137736 0.0462048 0.000530889 0.662642 
